<!-- Generated by IcoMoon.io -->
<svg version="1.1" xmlns="http://www.w3.org/2000/svg" width="38" height="32" viewBox="0 0 38 32">
<title>mail</title>
<path fill="#2196f3" d="M29.6 0h-20.8c-1.323 0-2.4 1.077-2.4 2.4v14.4c0 1.323 1.077 2.4 2.4 2.4h20.8c1.323 0 2.4-1.077 2.4-2.4v-14.4c0-1.323-1.077-2.4-2.4-2.4zM29.6 1.6c0.109 0 0.213 0.022 0.307 0.062l-10.707 9.28-10.707-9.28c0.091-0.039 0.196-0.062 0.307-0.062h20.8zM29.6 17.6h-20.8c-0.442 0-0.8-0.358-0.8-0.8v0-13.448l10.675 9.253c0.14 0.122 0.324 0.196 0.525 0.196s0.385-0.074 0.526-0.197l10.674-9.252v13.448c0 0.442-0.358 0.8-0.8 0.8v0z"></path>
<path fill="none" stroke="#000" stroke-linejoin="miter" stroke-linecap="butt" stroke-miterlimit="4" stroke-width="1.6" d="M30.432 2.267l0.619-0.539-11.325 9.818 10.706-9.28zM18.675 11.547l0.525 0.453-11.232-9.733 10.706 9.28zM8.186 0.922l-0.037 0.016c0.002-0.001 0.014-0.007 0.026-0.012l0.010-0.004zM30.253 0.938l-0.038-0.016c0.002 0.002 0.015 0.007 0.028 0.012l0.011 0.004zM8.8 18.4v0z"></path>
</svg>
